#Comment line ignore any data following # character 
#Hierarchical Translation and Rotation (.htr) file 
[Header]	
#Header keywords are followed by a single value 
FileType HTR		#Single word string
DataType HTRS		#Translation followed by rotation and scale data
FileVersion 1		#integer
NumSegments 25		#integer
NumFrames 6		#integer
DataFrameRate 30		#integer, data frame rate in this file
EulerRotationOrder ZYX
CalibrationUnits mm
RotationUnits Degrees
GlobalAxisofGravity Y
BoneLengthAxis Y
ScaleFactor 1.00
[SegmentNames&Hierarchy]
#CHILD	PARENT
BN_Tick_Root GLOBAL
BN_Torso BN_Tick_Root
BN_L_Leg_Front01 BN_Torso
BN_L_Leg_Rear01 BN_Torso
BN_MetalTop BN_Torso
BN_Neck BN_Torso
BN_R_Leg_Front01 BN_Torso
BN_R_Leg_Rear01 BN_Torso
BN_Sack BN_Torso
BN_L_Leg_Front02 BN_L_Leg_Front01
BN_L_Leg_Front03 BN_L_Leg_Front02
BN_L_Leg_Rear02 BN_L_Leg_Rear01
BN_L_Leg_Rear03 BN_L_Leg_Rear02
BN_Head BN_Neck
BN_Needle BN_Head
BN_R_Leg_Front02 BN_R_Leg_Front01
BN_R_Leg_Front03 BN_R_Leg_Front02
BN_R_Leg_Rear02 BN_R_Leg_Rear01
BN_R_Leg_Rear03 BN_R_Leg_Rear02
BN_SackDef01 BN_Sack
BN_SackDef02 BN_Sack
BN_SackDef03 BN_Sack
BN_SackDef04 BN_Sack
BN_SackDef05 BN_Sack
BN_SackDef06 BN_Sack
[BasePosition]
#SegmentName Tx, Ty, Tz, Rx, Ry, Rz, BoneLength
BN_Tick_Root 0.000000 0.000000 0.000000 -90.000000 0.000000 0.000000 10.000000 
BN_Torso 0.000000 0.000000 0.000000 0.000000 0.000000 0.000000 10.000000 
BN_L_Leg_Front01 0.000000 0.000000 0.000000 0.000000 0.000000 0.000000 10.000000 
BN_L_Leg_Rear01 0.000000 0.000000 0.000000 0.000000 0.000000 0.000000 10.000000 
BN_MetalTop 0.000000 0.000000 0.000000 0.000000 0.000000 0.000000 10.000000 
BN_Neck 0.000000 0.000000 0.000000 0.000000 0.000000 0.000000 10.000000 
BN_R_Leg_Front01 0.000000 0.000000 0.000000 0.000000 0.000000 0.000000 10.000000 
BN_R_Leg_Rear01 0.000000 0.000000 0.000000 0.000000 0.000000 0.000000 10.000000 
BN_Sack 0.000000 0.000000 0.000000 0.000000 0.000000 0.000000 10.000000 
BN_L_Leg_Front02 0.000000 0.000000 0.000000 0.000000 0.000000 0.000000 10.000000 
BN_L_Leg_Front03 0.000000 0.000000 0.000000 0.000000 0.000000 0.000000 10.000000 
BN_L_Leg_Rear02 0.000000 0.000000 0.000000 0.000000 0.000000 0.000000 10.000000 
BN_L_Leg_Rear03 0.000000 0.000000 0.000000 0.000000 0.000000 0.000000 10.000000 
BN_Head 0.000000 0.000000 0.000000 0.000000 0.000000 0.000000 10.000000 
BN_Needle 0.000000 0.000000 0.000000 0.000000 0.000000 0.000000 10.000000 
BN_R_Leg_Front02 0.000000 0.000000 0.000000 0.000000 0.000000 0.000000 10.000000 
BN_R_Leg_Front03 0.000000 0.000000 0.000000 0.000000 0.000000 0.000000 10.000000 
BN_R_Leg_Rear02 0.000000 0.000000 0.000000 0.000000 0.000000 0.000000 10.000000 
BN_R_Leg_Rear03 0.000000 0.000000 0.000000 0.000000 0.000000 0.000000 10.000000 
BN_SackDef01 0.000000 0.000000 0.000000 0.000000 0.000000 0.000000 10.000000 
BN_SackDef02 0.000000 0.000000 0.000000 0.000000 0.000000 0.000000 10.000000 
BN_SackDef03 0.000000 0.000000 0.000000 0.000000 0.000000 0.000000 10.000000 
BN_SackDef04 0.000000 0.000000 0.000000 0.000000 0.000000 0.000000 10.000000 
BN_SackDef05 0.000000 0.000000 0.000000 0.000000 0.000000 0.000000 10.000000 
BN_SackDef06 0.000000 0.000000 0.000000 0.000000 0.000000 0.000000 10.000000 
#Beginning of Data. Separated by tabs
#Fr	Tx	Ty	Tz	Rx	Ry	Rz	SF
[BN_Tick_Root]
59 0.000000 0.000000 0.000000 0.000000 0.000000 -0.000020 0.000000
60 0.000000 0.000000 0.000000 0.000000 0.000000 -0.000020 0.000000
61 0.000000 0.000000 0.000000 0.000000 0.000000 -0.000020 0.000000
62 0.000000 0.000000 0.000000 0.000000 0.000000 -0.000020 0.000000
63 0.000000 0.000000 0.000000 0.000000 0.000000 -0.000020 0.000000
64 0.000000 0.000000 0.000000 0.000000 0.000000 -0.000020 0.000000
[BN_Torso]
59 10.325516 -2.883524 191.524429 -1.815049 -3.299388 4.107493 191.824234
60 10.316626 -1.866964 193.481766 -4.322437 -3.318567 4.291883 193.765610
61 10.286396 1.588955 195.396652 -6.995646 -3.335034 4.411206 195.673660
62 10.256166 5.044958 197.311508 -9.668908 -3.345928 4.531167 197.642288
63 10.209341 10.398212 199.193344 -12.468408 -3.361504 4.601653 199.725662
64 10.162515 15.751448 201.075165 -15.272972 -3.373644 4.672945 201.947052
[BN_L_Leg_Front01]
59 -68.477791 10.734189 -26.804373 -49.840660 42.964443 138.914459 74.316254
60 -68.477791 10.734189 -26.804373 -52.250736 41.472553 137.082321 74.316254
61 -68.477791 10.734189 -26.804373 -54.672394 39.989738 135.572296 74.316254
62 -68.477791 10.734189 -26.804373 -57.154545 38.559536 134.366394 74.316254
63 -68.477791 10.734189 -26.804373 -59.550152 37.090919 133.262695 74.316254
64 -68.477791 10.734189 -26.804373 -62.032337 35.712238 132.290527 74.316254
[BN_L_Leg_Rear01]
59 -72.133743 -73.994843 -18.268616 57.925682 49.770973 -146.960220 104.939293
60 -72.133743 -73.994843 -18.268616 54.214565 51.834515 -150.074249 104.939293
61 -72.133743 -73.994843 -18.268616 50.077740 53.697624 -153.215195 104.939293
62 -72.133743 -73.994843 -18.268616 45.533569 55.370758 -156.472626 104.939293
63 -72.133743 -73.994843 -18.268616 40.649998 56.868511 -159.826202 104.939293
64 -72.133743 -73.994843 -18.268616 35.416264 58.195610 -163.541122 104.939293
[BN_MetalTop]
59 0.000008 13.737477 26.403606 92.252487 -17.602354 -97.416145 29.763546
60 0.000008 13.737477 26.403606 92.252388 -17.600962 -97.416283 29.763546
61 0.000008 13.737477 26.403606 92.252312 -17.599579 -97.416458 29.763546
62 0.000008 13.737477 26.403606 92.252213 -17.598194 -97.416595 29.763546
63 0.000008 13.737477 26.403606 92.252113 -17.596809 -97.416756 29.763546
64 0.000008 13.737477 26.403606 92.252022 -17.595417 -97.416901 29.763546
[BN_Neck]
59 0.000014 95.233284 10.002091 -89.999672 -65.297531 89.999657 95.757088
60 0.000014 95.233284 10.002091 -89.999672 -65.297531 89.999657 95.757088
61 0.000014 95.233284 10.002091 -89.999672 -65.297531 89.999657 95.757088
62 0.000014 95.233284 10.002091 -89.999672 -65.297531 89.999657 95.757088
63 0.000014 95.233284 10.002091 -89.999672 -65.297531 89.999657 95.757088
64 0.000014 95.233284 10.002091 -89.999672 -65.297531 89.999657 95.757088
[BN_R_Leg_Front01]
59 68.477768 10.734107 -26.804314 55.144073 52.279613 41.277809 74.316193
60 68.477768 10.734107 -26.804314 58.092583 50.885899 43.434040 74.316193
61 68.477768 10.734107 -26.804314 60.999451 49.520210 45.344620 74.316193
62 68.477768 10.734107 -26.804314 63.917656 48.234272 47.052738 74.316193
63 68.477768 10.734107 -26.804314 66.706322 46.894012 48.620674 74.316193
64 68.477768 10.734107 -26.804314 69.573532 45.646255 50.141262 74.316193
[BN_R_Leg_Rear01]
59 72.133751 -73.994873 -18.268644 -55.867832 74.115364 -31.995520 104.939331
60 72.133751 -73.994873 -18.268644 -46.588261 75.937416 -23.468309 104.939331
61 72.133751 -73.994873 -18.268644 -35.501461 77.189964 -13.685360 104.939331
62 72.133751 -73.994873 -18.268644 -23.189587 77.887352 -3.069102 104.939331
63 72.133751 -73.994873 -18.268644 -10.697446 78.113190 7.465189 104.939331
64 72.133751 -73.994873 -18.268644 1.776495 77.858727 17.979795 104.939331
[BN_Sack]
59 -0.000000 -78.024918 33.657791 91.379875 -11.014523 -97.199577 84.974907
60 -0.000000 -78.024918 33.657791 91.379875 -11.014524 -97.199577 84.974907
61 -0.000000 -78.024918 33.657791 91.379875 -11.014523 -97.199577 84.974907
62 -0.000000 -78.024918 33.657791 91.379875 -11.014523 -97.199577 84.974907
63 -0.000000 -78.024918 33.657791 91.379875 -11.014523 -97.199577 84.974907
64 -0.000000 -78.024918 33.657791 91.379875 -11.014523 -97.199577 84.974907
[BN_L_Leg_Front02]
59 142.805023 -0.000015 -0.000104 0.130974 0.479335 -110.282806 142.805023
60 142.805023 -0.000015 -0.000104 0.134369 0.471840 -109.757629 142.805023
61 142.805023 -0.000015 -0.000104 0.134394 0.471833 -109.751610 142.805023
62 142.805023 -0.000015 -0.000104 0.131629 0.479156 -110.126076 142.805023
63 142.805023 -0.000015 -0.000104 0.128474 0.486151 -110.823044 142.805023
64 142.805023 -0.000015 -0.000104 0.125233 0.493108 -111.520035 142.805023
[BN_L_Leg_Front03]
59 124.143021 -0.000045 0.000007 0.352348 -0.391484 119.137642 124.143021
60 124.143021 -0.000045 0.000007 0.352342 -0.396702 118.632233 124.143021
61 124.143021 -0.000045 0.000007 0.352362 -0.396684 118.626511 124.143021
62 124.143021 -0.000045 0.000007 0.352877 -0.391007 118.982788 124.143021
63 124.143021 -0.000045 0.000007 0.353614 -0.388451 119.654999 124.143021
64 124.143021 -0.000045 0.000007 0.354381 -0.385904 120.327202 124.143021
[BN_L_Leg_Rear02]
59 139.939041 0.000075 -0.000022 0.019530 -0.243416 113.550667 139.939041
60 139.939041 0.000075 -0.000022 0.026976 -0.258196 112.018509 139.939041
61 139.939041 0.000075 -0.000022 0.031159 -0.239852 109.978058 139.939041
62 139.939041 0.000075 -0.000022 0.043836 -0.258032 107.593384 139.939041
63 139.939041 0.000075 -0.000022 0.050771 -0.250072 104.917297 139.939041
64 139.939041 0.000075 -0.000022 0.057327 -0.241798 102.241226 139.939041
[BN_L_Leg_Rear03]
59 142.839615 0.000179 -0.000060 0.000846 -0.002190 -132.245712 142.839615
60 142.839615 0.000179 -0.000060 0.000820 -0.002199 -130.906281 142.839615
61 142.839615 0.000179 -0.000060 0.000785 -0.002212 -129.072617 142.839615
62 142.839615 0.000179 -0.000060 0.000742 -0.002227 -126.854675 142.839615
63 142.839615 0.000179 -0.000060 0.000692 -0.002243 -124.313225 142.839615
64 142.839615 0.000179 -0.000060 0.000637 -0.002260 -121.489929 142.839615
[BN_Head]
59 57.062447 -0.000030 0.000000 -1.777730 8.025550 1.210717 57.062447
60 57.062447 -0.000030 0.000000 -1.776045 8.171136 -0.244301 57.062447
61 57.062447 -0.000030 0.000000 -1.751805 8.285053 -1.955367 57.062447
62 57.062447 -0.000030 0.000000 -1.715089 8.369833 -3.961406 57.062447
63 57.062447 -0.000030 0.000000 -1.681387 8.455833 -5.967856 57.062447
64 57.062447 -0.000030 0.000000 -1.649801 8.521132 -8.229955 57.062447
[BN_Needle]
59 35.662258 117.249916 -0.000053 0.000003 0.000030 87.896805 122.553413
60 35.479076 112.262367 -0.000059 0.000003 0.000030 87.896805 117.735313
61 35.295895 107.274841 -0.000066 0.000003 0.000030 87.896805 112.932243
62 35.161301 103.609535 -0.000064 0.000003 0.000030 87.896805 109.413216
63 35.026707 99.944206 -0.000062 0.000003 0.000030 87.896805 105.904274
64 34.892109 96.278900 -0.000060 0.000003 0.000030 87.896805 102.406471
[BN_R_Leg_Front02]
59 142.804947 -0.000060 0.000060 -0.089534 0.576265 119.212799 142.804947
60 142.804947 -0.000060 0.000060 -0.093607 0.569123 118.747841 142.804947
61 142.804947 -0.000060 0.000060 -0.093179 0.569193 118.834061 142.804947
62 142.804947 -0.000060 0.000060 -0.089015 0.576346 119.316040 142.804947
63 142.804947 -0.000060 0.000060 -0.084369 0.585869 120.123634 142.804947
64 142.804947 -0.000060 0.000060 -0.079590 0.595327 120.931221 142.804947
[BN_R_Leg_Front03]
59 124.143005 -0.000060 -0.000156 -0.352131 -0.357117 -127.195747 124.143005
60 124.143005 -0.000060 -0.000156 -0.355583 -0.360314 -126.797844 124.143005
61 124.143005 -0.000060 -0.000156 -0.353146 -0.356114 -126.869797 124.143005
62 124.143005 -0.000060 -0.000156 -0.351873 -0.357371 -127.278625 124.143005
63 124.143005 -0.000060 -0.000156 -0.352752 -0.354338 -127.960098 124.143005
64 124.143005 -0.000060 -0.000156 -0.353666 -0.351316 -128.641586 124.143005
[BN_R_Leg_Rear02]
59 139.939011 -0.000149 0.000015 0.121864 -0.252523 -154.413223 139.939011
60 139.939011 -0.000149 0.000015 0.098118 -0.232781 -150.026382 139.939011
61 139.939011 -0.000149 0.000015 0.083889 -0.240806 -145.266342 139.939011
62 139.939011 -0.000149 0.000015 0.069017 -0.247633 -140.498093 139.939011
63 139.939011 -0.000149 0.000015 0.053656 -0.253192 -135.738068 139.939011
64 139.939011 -0.000149 0.000015 0.039050 -0.253082 -131.183212 139.939011
[BN_R_Leg_Rear03]
59 142.839417 0.000075 0.000119 0.001956 -0.001297 157.080750 142.839417
60 142.839417 0.000075 0.000119 0.001977 -0.001265 155.200302 142.839417
61 142.839417 0.000075 0.000119 0.002001 -0.001226 152.997787 142.839417
62 142.839417 0.000075 0.000119 0.002027 -0.001184 150.590820 142.839417
63 142.839417 0.000075 0.000119 0.002054 -0.001137 147.919785 142.839417
64 142.839417 0.000075 0.000119 0.002080 -0.001088 145.248749 142.839417
[BN_SackDef01]
59 250.146423 -3.773190 43.012718 -128.408218 -44.374973 -11.740845 253.845551
60 250.116074 -3.772144 43.007454 -128.408218 -44.374973 -11.740845 253.814758
61 250.085739 -3.771099 43.002182 -128.408218 -44.374973 -11.740845 253.783936
62 250.055405 -3.770053 42.996914 -128.408218 -44.374973 -11.740845 253.753128
63 250.025070 -3.769007 42.991642 -128.408218 -44.374973 -11.740845 253.722321
64 249.994720 -3.767962 42.986374 -128.408218 -44.374973 -11.740845 253.691528
[BN_SackDef02]
59 138.789810 -62.131634 45.674423 32.077126 -27.375721 -88.781525 158.773758
60 138.789810 -62.131634 45.674423 32.077126 -27.375721 -88.781525 158.773758
61 138.789810 -62.131634 45.674427 32.077126 -27.375721 -88.781525 158.773758
62 138.789810 -62.131634 45.674427 32.077126 -27.375721 -88.781525 158.773758
63 138.789810 -62.131634 45.674427 32.077126 -27.375721 -88.781525 158.773758
64 138.789810 -62.131634 45.674427 32.077126 -27.375721 -88.781525 158.773758
[BN_SackDef03]
59 250.146362 -3.773148 -43.012794 18.144459 44.375008 -11.740894 253.845505
60 250.116028 -3.772106 -43.007530 18.144459 44.375008 -11.740894 253.814713
61 250.085678 -3.771064 -43.002266 18.144459 44.375008 -11.740894 253.783905
62 250.055344 -3.770022 -42.997002 18.144459 44.375008 -11.740894 253.753082
63 250.025009 -3.768980 -42.991737 18.144459 44.375008 -11.740894 253.722290
64 249.994675 -3.767937 -42.986473 18.144459 44.375008 -11.740894 253.691498
[BN_SackDef04]
59 138.789810 -62.131546 -45.674423 146.059982 27.375723 -88.781555 158.773727
60 138.789810 -62.131546 -45.674423 146.059982 27.375723 -88.781555 158.773727
61 138.789810 -62.131546 -45.674419 146.059982 27.375723 -88.781555 158.773727
62 138.789810 -62.131546 -45.674419 146.059982 27.375723 -88.781555 158.773727
63 138.789810 -62.131550 -45.674419 146.059982 27.375723 -88.781555 158.773727
64 138.789810 -62.131550 -45.674419 146.059982 27.375723 -88.781555 158.773727
[BN_SackDef05]
59 118.968506 46.394482 -63.936047 0.155741 51.314110 90.605110 142.806763
60 118.953644 46.375538 -63.927307 0.155741 51.314110 90.605110 142.784317
61 118.938789 46.356598 -63.918575 0.155741 51.314110 90.605110 142.761887
62 118.923927 46.337658 -63.909836 0.155741 51.314110 90.605110 142.739426
63 118.909058 46.318714 -63.901096 0.155741 51.314110 90.605110 142.716995
64 118.894196 46.299774 -63.892365 0.155741 51.314110 90.605110 142.694550
[BN_SackDef06]
59 118.968575 46.394547 63.936054 152.058487 -51.314072 90.605019 142.806839
60 118.953712 46.375607 63.927315 152.058487 -51.314072 90.605019 142.784393
61 118.938858 46.356667 63.918575 152.058487 -51.314072 90.605019 142.761963
62 118.923988 46.337727 63.909836 152.058487 -51.314072 90.605019 142.739502
63 118.909126 46.318787 63.901096 152.058487 -51.314072 90.605019 142.717056
64 118.894272 46.299850 63.892357 152.058487 -51.314072 90.605019 142.694626
